<?xml version="1.0" encoding="iso-8859-1"?>
<!-- Generator: Adobe Illustrator 16.0.0, SVG Export Plug-In . SVG Version: 6.00 Build 0)  -->
<!DOCTYPE svg PUBLIC "-//W3C//DTD SVG 1.1//EN" "http://www.w3.org/Graphics/SVG/1.1/DTD/svg11.dtd">
<svg version="1.1" id="Layer_1" xmlns="http://www.w3.org/2000/svg" xmlns:xlink="http://www.w3.org/1999/xlink" x="0px" y="0px"
	 width="22.487px" height="28.546px" viewBox="0 0 22.487 28.546" style="enable-background:new 0 0 22.487 28.546;" fill="white"
	 xml:space="preserve">
<path d="M0,11.25h22.487v6.313H0V11.25z M10.911,8.377c-0.576,0-1.12-0.109-1.63-0.33C8.773,7.826,8.333,7.531,7.962,7.159
	C7.59,6.787,7.293,6.348,7.074,5.839c-0.222-0.509-0.33-1.052-0.33-1.63c0-0.577,0.108-1.12,0.33-1.63
	C7.293,2.07,7.59,1.63,7.962,1.258c0.371-0.371,0.812-0.674,1.319-0.908C9.791,0.117,10.335,0,10.911,0
	c0.579,0,1.121,0.117,1.63,0.351c0.51,0.234,0.95,0.537,1.321,0.908c0.372,0.372,0.667,0.812,0.888,1.32
	c0.22,0.51,0.33,1.053,0.33,1.63c0,0.578-0.11,1.122-0.33,1.63c-0.221,0.509-0.516,0.948-0.888,1.32
	c-0.371,0.372-0.812,0.667-1.321,0.888C12.032,8.268,11.49,8.377,10.911,8.377z M10.911,20.169c0.579,0,1.121,0.11,1.63,0.331
	c0.51,0.221,0.95,0.515,1.321,0.887c0.372,0.371,0.667,0.813,0.888,1.321c0.22,0.509,0.33,1.051,0.33,1.63
	c0,0.577-0.11,1.121-0.33,1.63c-0.221,0.508-0.516,0.948-0.888,1.319c-0.371,0.372-0.812,0.674-1.321,0.909
	c-0.509,0.234-1.051,0.35-1.63,0.35c-0.576,0-1.12-0.116-1.63-0.35c-0.508-0.234-0.948-0.537-1.319-0.909
	c-0.372-0.371-0.669-0.811-0.888-1.319c-0.222-0.509-0.33-1.053-0.33-1.63c0-0.579,0.108-1.121,0.33-1.63
	c0.219-0.509,0.516-0.951,0.888-1.321c0.371-0.372,0.812-0.667,1.319-0.887C9.791,20.279,10.335,20.169,10.911,20.169z"/>
<g>
</g>
<g>
</g>
<g>
</g>
<g>
</g>
<g>
</g>
<g>
</g>
<g>
</g>
<g>
</g>
<g>
</g>
<g>
</g>
<g>
</g>
<g>
</g>
<g>
</g>
<g>
</g>
<g>
</g>
</svg>
